<svg xmlns="http://www.w3.org/2000/svg" viewBox="0 0 252 75.8" enable-background="new 0 0 252 75.8"><path fill="#C1D0E9" d="M71.6 6.2v12.4l-16-6.2z"/><path fill="#D6E0F0" d="M55.6 12.4v12.4l-16-6.2zM55.6 24.8v12.4l-16-6.2z"/><g fill="#757B82"><path d="M15.8 43.5c2.5 0 3.5.3 4.4 1.2 1.4 1.4 2.1 3.8 2.1 11.9 0 8-.7 10.5-2.1 11.9-.8.8-1.5 1.1-3.1 1.2l1 3.3H13l-.8-3.3H6.9c-2.5 0-3.5-.3-4.4-1.2C1.1 67.1.4 64.6.4 56.6c0-8.1.7-10.5 2.1-11.9.9-.9 1.9-1.2 4.4-1.2h8.9zM7.1 64.7c.3.3.6.3 1.8.3h1.5L9 60h4.6l1.2 5c.4 0 .6-.1.8-.3.3-.3.5-1.3.5-8s-.2-7.7-.5-8c-.2-.2-.6-.3-1.7-.3h-5c-1.2 0-1.5.1-1.7.3-.3.3-.5 1.3-.5 8s.1 7.7.4 8zM38.5 67.1c-2.7 2.4-3.5 2.8-5.4 2.8h-1.9c-1.8 0-2.9-.4-3.7-1.2-.9-.9-1.2-2-1.2-5v-10h-2.7v-4.5h8.3v13.9c0 .9.2 1.4.5 1.7.3.3.7.5 1.7.5h1.1c1 0 1.9-.3 3.3-.9V53.6h-2.9v-4.5h8.5v16.2h2.8v4.5h-8.4v-2.7zM59.9 53.8c-.3-.2-.6-.3-1.5-.3h-2.5c-.8 0-1.2.1-1.4.3-.3.3-.3.8-.4 2h-5.3c.1-3.5.4-4.7 1.2-5.5.8-.8 1.8-1.2 3.7-1.2h7.1c2 0 3.2.4 3.9 1.1.9.9 1.2 2 1.2 5.4v9.7h2.7v4.5h-8.3v-2.3c-2.5 2-3.3 2.3-5.1 2.3h-2.5c-1.8 0-2.8-.2-3.6-1.1-.7-.7-1.2-2-1.2-4.7 0-2.6.4-4.2 1.3-5.1 1-1 2.4-1.4 5.8-1.4 1.8 0 3.7.2 5.3.6v-1.8c0-1.8-.1-2.2-.4-2.5zm.4 10.9v-3.6h-3.4c-2.2 0-2.7.2-3.1.5-.4.4-.5.9-.5 1.9 0 1.1.1 1.7.4 2 .3.3.7.3 1.5.3h1.2c1.1 0 2-.2 3.9-1.1zM78.2 51.9c2.7-2.4 3.5-2.8 5.4-2.8h1.9c1.8 0 2.9.4 3.7 1.2.9.8 1.2 1.9 1.2 5v10.1h2.7v4.5H82.6v-4.4h2.2V56c0-.9-.2-1.4-.5-1.7-.3-.3-.7-.5-1.7-.5h-1.1c-1 0-1.9.2-3.3.9v10.8h2.2v4.4H69.9v-4.5h2.8V53.7h-2.8v-4.5h8.4v2.7zM104.8 69l-2.1.5c-.9.2-2.3.5-3.9.5-2 0-2.9-.4-3.6-1.1-.7-.7-.9-1.6-.9-3.7V53.7h-2.8v-4.5h2.8V44h5.6v5.1h5v4.5h-5v10c0 .9.1 1.2.3 1.4.2.2.5.2 1.5.2h3.2V69zM121.2 67.1c-2.7 2.4-3.5 2.8-5.4 2.8h-1.9c-1.8 0-2.9-.4-3.7-1.2-.9-.9-1.2-2-1.2-5v-10h-2.7v-4.5h8.3v13.9c0 .9.2 1.4.5 1.7.3.3.7.5 1.7.5h1.1c1 0 1.9-.3 3.3-.9V53.6h-2.9v-4.5h8.5v16.2h2.8v4.5h-8.4v-2.7zM139.6 51.9c2.7-2.4 3.5-2.8 5.4-2.8h1.7c1.8 0 2.9.4 3.7 1.2.5.5.8 1 1 1.8 2.8-2.6 3.7-3 5.6-3h1.7c1.8 0 2.9.4 3.7 1.2.9.8 1.2 1.9 1.2 5v10.1h2.7v4.5h-10.4v-4.4h2.2V56c0-.9-.2-1.4-.5-1.7-.3-.3-.7-.5-1.7-.5h-1c-1 0-1.9.2-3.3.9V65.5h2.2v4.4h-10v-4.4h2.2V56c0-.9-.2-1.4-.5-1.7-.3-.3-.7-.5-1.7-.5h-1c-1 0-1.9.2-3.3.9v10.8h2.2v4.4h-10.6v-4.5h2.8V53.7h-2.8v-4.5h8.4v2.7zM170.8 48.2h-3.2v-4.7H180v4.7h-3.3v16.9h7.1v-4.8h5.3v9.5h-21.4v-4.7h3.2V48.2zM196.1 60.9c0 3.4.2 4 .5 4.3.3.3.6.4 1.8.4h2.9c1.2 0 1.5-.1 1.7-.4.2-.2.3-.8.3-2.3h5.2c0 3.1-.4 4.7-1.4 5.7-.6.6-1.5 1.2-3.7 1.2h-6.9c-2.1 0-3.2-.3-4.1-1.3-1.4-1.4-1.9-3-1.9-9.1s.5-7.7 1.9-9.1c.9-.9 2-1.2 4.1-1.2h6.2c2.1 0 3.3.3 4.1 1.2 1.4 1.4 1.7 3.1 1.7 9.1v.6c0 .6-.2.8-.8.8h-11.6zm0-3.2h7c0-2.8-.2-3.7-.5-4-.2-.2-.6-.3-1.7-.3h-2.5c-1.2 0-1.5.1-1.8.4-.3.2-.4.9-.5 3.9zM221.9 53.8c-.3-.2-.6-.3-1.5-.3h-2.5c-.8 0-1.2.1-1.4.3-.3.3-.3.8-.4 2h-5.3c.1-3.5.4-4.7 1.2-5.5.8-.8 1.8-1.2 3.7-1.2h7.1c2 0 3.2.4 3.9 1.1.9.9 1.2 2 1.2 5.4v9.7h2.7v4.5h-8.3v-2.3c-2.5 2-3.3 2.3-5.1 2.3h-2.5c-1.8 0-2.8-.2-3.6-1.1-.7-.7-1.2-2-1.2-4.7 0-2.6.4-4.2 1.3-5.1 1-1 2.4-1.4 5.8-1.4 1.8 0 3.7.2 5.3.6v-1.8c-.1-1.8-.2-2.2-.4-2.5zm.3 10.9v-3.6h-3.4c-2.2 0-2.7.2-3.1.5-.4.4-.5.9-.5 1.9 0 1.1.1 1.7.4 2 .3.3.7.3 1.5.3h1.2c1.2 0 2.1-.2 3.9-1.1zM249.8 68.3c-.9.9-2.1 1.3-4.2 1.3h-1.9c-1.7 0-2.7-.4-5-2.4v4.1h2.9v4.4h-11.3v-4.5h2.8V53.7h-2.8v-4.5h8.4v2.7c2.6-2.3 3.5-2.7 5.2-2.7h1.8c2.2 0 3.3.3 4.3 1.3 1.2 1.2 1.7 3 1.7 9 0 5.8-.6 7.6-1.9 8.8zm-11.1-13.8v9.8c1.2.6 2.1.8 3.1.8h1.8c1.1 0 1.5-.1 1.9-.5.5-.5.7-1.5.7-5.3s-.2-4.8-.7-5.3c-.3-.3-.8-.5-1.9-.5h-1.7c-1.1.1-2 .4-3.2 1z"/></g><g opacity=".3" fill="#006DB6"><path d="M15.8 43.5c2.5 0 3.5.3 4.4 1.2 1.4 1.4 2.1 3.8 2.1 11.9 0 8-.7 10.5-2.1 11.9-.8.8-1.5 1.1-3.1 1.2l1 3.3H13l-.8-3.3H6.9c-2.5 0-3.5-.3-4.4-1.2C1.1 67.1.4 64.6.4 56.6c0-8.1.7-10.5 2.1-11.9.9-.9 1.9-1.2 4.4-1.2h8.9zM7.1 64.7c.3.3.6.3 1.8.3h1.5L9 60h4.6l1.2 5c.4 0 .6-.1.8-.3.3-.3.5-1.3.5-8s-.2-7.7-.5-8c-.2-.2-.6-.3-1.7-.3h-5c-1.2 0-1.5.1-1.7.3-.3.3-.5 1.3-.5 8s.1 7.7.4 8zM38.5 67.1c-2.7 2.4-3.5 2.8-5.4 2.8h-1.9c-1.8 0-2.9-.4-3.7-1.2-.9-.9-1.2-2-1.2-5v-10h-2.7v-4.5h8.3v13.9c0 .9.2 1.4.5 1.7.3.3.7.5 1.7.5h1.1c1 0 1.9-.3 3.3-.9V53.6h-2.9v-4.5h8.5v16.2h2.8v4.5h-8.4v-2.7zM59.9 53.8c-.3-.2-.6-.3-1.5-.3h-2.5c-.8 0-1.2.1-1.4.3-.3.3-.3.8-.4 2h-5.3c.1-3.5.4-4.7 1.2-5.5.8-.8 1.8-1.2 3.7-1.2h7.1c2 0 3.2.4 3.9 1.1.9.9 1.2 2 1.2 5.4v9.7h2.7v4.5h-8.3v-2.3c-2.5 2-3.3 2.3-5.1 2.3h-2.5c-1.8 0-2.8-.2-3.6-1.1-.7-.7-1.2-2-1.2-4.7 0-2.6.4-4.2 1.3-5.1 1-1 2.4-1.4 5.8-1.4 1.8 0 3.7.2 5.3.6v-1.8c0-1.8-.1-2.2-.4-2.5zm.4 10.9v-3.6h-3.4c-2.2 0-2.7.2-3.1.5-.4.4-.5.9-.5 1.9 0 1.1.1 1.7.4 2 .3.3.7.3 1.5.3h1.2c1.1 0 2-.2 3.9-1.1zM78.2 51.9c2.7-2.4 3.5-2.8 5.4-2.8h1.9c1.8 0 2.9.4 3.7 1.2.9.8 1.2 1.9 1.2 5v10.1h2.7v4.5H82.6v-4.4h2.2V56c0-.9-.2-1.4-.5-1.7-.3-.3-.7-.5-1.7-.5h-1.1c-1 0-1.9.2-3.3.9v10.8h2.2v4.4H69.9v-4.5h2.8V53.7h-2.8v-4.5h8.4v2.7zM104.8 69l-2.1.5c-.9.2-2.3.5-3.9.5-2 0-2.9-.4-3.6-1.1-.7-.7-.9-1.6-.9-3.7V53.7h-2.8v-4.5h2.8V44h5.6v5.1h5v4.5h-5v10c0 .9.1 1.2.3 1.4.2.2.5.2 1.5.2h3.2V69zM121.2 67.1c-2.7 2.4-3.5 2.8-5.4 2.8h-1.9c-1.8 0-2.9-.4-3.7-1.2-.9-.9-1.2-2-1.2-5v-10h-2.7v-4.5h8.3v13.9c0 .9.2 1.4.5 1.7.3.3.7.5 1.7.5h1.1c1 0 1.9-.3 3.3-.9V53.6h-2.9v-4.5h8.5v16.2h2.8v4.5h-8.4v-2.7zM139.6 51.9c2.7-2.4 3.5-2.8 5.4-2.8h1.7c1.8 0 2.9.4 3.7 1.2.5.5.8 1 1 1.8 2.8-2.6 3.7-3 5.6-3h1.7c1.8 0 2.9.4 3.7 1.2.9.8 1.2 1.9 1.2 5v10.1h2.7v4.5h-10.4v-4.4h2.2V56c0-.9-.2-1.4-.5-1.7-.3-.3-.7-.5-1.7-.5h-1c-1 0-1.9.2-3.3.9V65.5h2.2v4.4h-10v-4.4h2.2V56c0-.9-.2-1.4-.5-1.7-.3-.3-.7-.5-1.7-.5h-1c-1 0-1.9.2-3.3.9v10.8h2.2v4.4h-10.6v-4.5h2.8V53.7h-2.8v-4.5h8.4v2.7zM170.8 48.2h-3.2v-4.7H180v4.7h-3.3v16.9h7.1v-4.8h5.3v9.5h-21.4v-4.7h3.2V48.2zM196.1 60.9c0 3.4.2 4 .5 4.3.3.3.6.4 1.8.4h2.9c1.2 0 1.5-.1 1.7-.4.2-.2.3-.8.3-2.3h5.2c0 3.1-.4 4.7-1.4 5.7-.6.6-1.5 1.2-3.7 1.2h-6.9c-2.1 0-3.2-.3-4.1-1.3-1.4-1.4-1.9-3-1.9-9.1s.5-7.7 1.9-9.1c.9-.9 2-1.2 4.1-1.2h6.2c2.1 0 3.3.3 4.1 1.2 1.4 1.4 1.7 3.1 1.7 9.1v.6c0 .6-.2.8-.8.8h-11.6zm0-3.2h7c0-2.8-.2-3.7-.5-4-.2-.2-.6-.3-1.7-.3h-2.5c-1.2 0-1.5.1-1.8.4-.3.2-.4.9-.5 3.9zM221.9 53.8c-.3-.2-.6-.3-1.5-.3h-2.5c-.8 0-1.2.1-1.4.3-.3.3-.3.8-.4 2h-5.3c.1-3.5.4-4.7 1.2-5.5.8-.8 1.8-1.2 3.7-1.2h7.1c2 0 3.2.4 3.9 1.1.9.9 1.2 2 1.2 5.4v9.7h2.7v4.5h-8.3v-2.3c-2.5 2-3.3 2.3-5.1 2.3h-2.5c-1.8 0-2.8-.2-3.6-1.1-.7-.7-1.2-2-1.2-4.7 0-2.6.4-4.2 1.3-5.1 1-1 2.4-1.4 5.8-1.4 1.8 0 3.7.2 5.3.6v-1.8c-.1-1.8-.2-2.2-.4-2.5zm.3 10.9v-3.6h-3.4c-2.2 0-2.7.2-3.1.5-.4.4-.5.9-.5 1.9 0 1.1.1 1.7.4 2 .3.3.7.3 1.5.3h1.2c1.2 0 2.1-.2 3.9-1.1zM249.8 68.3c-.9.9-2.1 1.3-4.2 1.3h-1.9c-1.7 0-2.7-.4-5-2.4v4.1h2.9v4.4h-11.3v-4.5h2.8V53.7h-2.8v-4.5h8.4v2.7c2.6-2.3 3.5-2.7 5.2-2.7h1.8c2.2 0 3.3.3 4.3 1.3 1.2 1.2 1.7 3 1.7 9 0 5.8-.6 7.6-1.9 8.8zm-11.1-13.8v9.8c1.2.6 2.1.8 3.1.8h1.8c1.1 0 1.5-.1 1.9-.5.5-.5.7-1.5.7-5.3s-.2-4.8-.7-5.3c-.3-.3-.8-.5-1.9-.5h-1.7c-1.1.1-2 .4-3.2 1z"/></g><path fill="#80A4D3" d="M39.6 6.2v12.4l16-6.2z"/><path fill="#F1F1F1" d="M23.6 12.4v12.4l16-6.2z"/><path fill="#006DB6" d="M39.6 18.6V31l16-6.2z"/><path fill="#6EC829" d="M55.6 24.8v12.4l16-6.2z"/><path fill="#E2F3CF" d="M55.6 12.4v12.4l16-6.2z"/><path fill="#4F88C5" d="M55.6 0v12.4l16-6.2z"/><path fill="#D6E0F0" d="M71.6 18.6V31l-16-6.2z"/><path fill="#EDF7E0" d="M87.6 24.8v12.4l-16-6.2zM71.6 31v12.5l-16-6.3z"/><path fill="#F1F1F1" d="M55.6 0v12.4l-16-6.2z"/><path fill="#E3E3E4" d="M39.6 18.6V31l-16-6.2zM39.6 6.2v12.4l-16-6.2zM39.6 31v12.5l-16-6.3z"/><path fill="#6EC829" d="M71.6 31v12.5l16-6.3z"/></svg>