<?xml version="1.0" encoding="utf-8"?>
<!-- Generator: Adobe Illustrator 18.1.0, SVG Export Plug-In . SVG Version: 6.00 Build 0)  -->
<svg version="1.1" id="Layer_1" xmlns="http://www.w3.org/2000/svg" xmlns:xlink="http://www.w3.org/1999/xlink" x="0px" y="0px"
	 viewBox="0 0 252 75.8" enable-background="new 0 0 252 75.8" xml:space="preserve">
<polygon fill="#C1D0E9" points="71.6,6.2 71.6,12.4 71.6,18.6 55.6,12.4 "/>
<polygon fill="#D6E0F0" points="55.6,12.4 55.6,18.6 55.6,24.8 39.6,18.6 "/>
<polygon fill="#D6E0F0" points="55.6,24.8 55.6,31 55.6,37.2 39.6,31 "/>
<g>
	<path fill="#757B82" d="M15.8,43.5c2.5,0,3.5,0.3,4.4,1.2c1.4,1.4,2.1,3.8,2.1,11.9c0,8-0.7,10.5-2.1,11.9
		c-0.8,0.8-1.5,1.1-3.1,1.2l1,3.3H13l-0.8-3.3H6.9c-2.5,0-3.5-0.3-4.4-1.2c-1.4-1.4-2.1-3.9-2.1-11.9c0-8.1,0.7-10.5,2.1-11.9
		c0.9-0.9,1.9-1.2,4.4-1.2H15.8z M7.1,64.7C7.4,65,7.7,65,8.9,65h1.5L9,60h4.6l1.2,5c0.4,0,0.6-0.1,0.8-0.3c0.3-0.3,0.5-1.3,0.5-8
		s-0.2-7.7-0.5-8c-0.2-0.2-0.6-0.3-1.7-0.3h-5c-1.2,0-1.5,0.1-1.7,0.3c-0.3,0.3-0.5,1.3-0.5,8S6.8,64.4,7.1,64.7z"/>
	<path fill="#757B82" d="M38.5,67.1c-2.7,2.4-3.5,2.8-5.4,2.8h-1.9c-1.8,0-2.9-0.4-3.7-1.2c-0.9-0.9-1.2-2-1.2-5V53.7h-2.7v-4.5h8.3
		v13.9c0,0.9,0.2,1.4,0.5,1.7c0.3,0.3,0.7,0.5,1.7,0.5h1.1c1,0,1.9-0.3,3.3-0.9V53.6h-2.9v-4.5h8.5v16.2h2.8v4.5h-8.4V67.1z"/>
	<path fill="#757B82" d="M59.9,53.8c-0.3-0.2-0.6-0.3-1.5-0.3h-2.5c-0.8,0-1.2,0.1-1.4,0.3c-0.3,0.3-0.3,0.8-0.4,2h-5.3
		c0.1-3.5,0.4-4.7,1.2-5.5c0.8-0.8,1.8-1.2,3.7-1.2h7.1c2,0,3.2,0.4,3.9,1.1c0.9,0.9,1.2,2,1.2,5.4v9.7h2.7v4.5h-8.3v-2.3
		c-2.5,2-3.3,2.3-5.1,2.3h-2.5c-1.8,0-2.8-0.2-3.6-1.1c-0.7-0.7-1.2-2-1.2-4.7c0-2.6,0.4-4.2,1.3-5.1c1-1,2.4-1.4,5.8-1.4
		c1.8,0,3.7,0.2,5.3,0.6v-1.8C60.3,54.5,60.2,54.1,59.9,53.8z M60.3,64.7v-3.6h-3.4c-2.2,0-2.7,0.2-3.1,0.5
		c-0.4,0.4-0.5,0.9-0.5,1.9c0,1.1,0.1,1.7,0.4,2c0.3,0.3,0.7,0.3,1.5,0.3h1.2C57.5,65.8,58.4,65.6,60.3,64.7z"/>
	<path fill="#757B82" d="M78.2,51.9c2.7-2.4,3.5-2.8,5.4-2.8h1.9c1.8,0,2.9,0.4,3.7,1.2c0.9,0.8,1.2,1.9,1.2,5v10.1h2.7v4.5H82.6
		v-4.4h2.2v-9.5c0-0.9-0.2-1.4-0.5-1.7c-0.3-0.3-0.7-0.5-1.7-0.5h-1.1c-1,0-1.9,0.2-3.3,0.9v10.8h2.2v4.4H69.9v-4.5h2.8V53.7h-2.8
		v-4.5h8.4V51.9z"/>
	<path fill="#757B82" d="M104.8,69l-2.1,0.5c-0.9,0.2-2.3,0.5-3.9,0.5c-2,0-2.9-0.4-3.6-1.1c-0.7-0.7-0.9-1.6-0.9-3.7V53.7h-2.8
		v-4.5h2.8V44h5.6v5.1h5v4.5h-5v10c0,0.9,0.1,1.2,0.3,1.4c0.2,0.2,0.5,0.2,1.5,0.2h3.2V69z"/>
	<path fill="#757B82" d="M121.2,67.1c-2.7,2.4-3.5,2.8-5.4,2.8h-1.9c-1.8,0-2.9-0.4-3.7-1.2c-0.9-0.9-1.2-2-1.2-5V53.7h-2.7v-4.5
		h8.3v13.9c0,0.9,0.2,1.4,0.5,1.7c0.3,0.3,0.7,0.5,1.7,0.5h1.1c1,0,1.9-0.3,3.3-0.9V53.6h-2.9v-4.5h8.5v16.2h2.8v4.5h-8.4V67.1z"/>
	<path fill="#757B82" d="M139.6,51.9c2.7-2.4,3.5-2.8,5.4-2.8h1.7c1.8,0,2.9,0.4,3.7,1.2c0.5,0.5,0.8,1,1,1.8c2.8-2.6,3.7-3,5.6-3
		h1.7c1.8,0,2.9,0.4,3.7,1.2c0.9,0.8,1.2,1.9,1.2,5v10.1h2.7v4.5h-10.4v-4.4h2.2v-9.5c0-0.9-0.2-1.4-0.5-1.7
		c-0.3-0.3-0.7-0.5-1.7-0.5h-1c-1,0-1.9,0.2-3.3,0.9v0.7v10.1h2.2v4.4h-10v-4.4h2.2v-9.5c0-0.9-0.2-1.4-0.5-1.7
		c-0.3-0.3-0.7-0.5-1.7-0.5h-1c-1,0-1.9,0.2-3.3,0.9v10.8h2.2v4.4h-10.6v-4.5h2.8V53.7h-2.8v-4.5h8.4V51.9z"/>
	<path fill="#757B82" d="M170.8,48.2h-3.2v-4.7H180v4.7h-3.3v16.9h7.1v-4.8h5.3v9.5h-21.4v-4.7h3.2V48.2z"/>
	<path fill="#757B82" d="M196.1,60.9c0,3.4,0.2,4,0.5,4.3c0.3,0.3,0.6,0.4,1.8,0.4h2.9c1.2,0,1.5-0.1,1.7-0.4
		c0.2-0.2,0.3-0.8,0.3-2.3h5.2c0,3.1-0.4,4.7-1.4,5.7c-0.6,0.6-1.5,1.2-3.7,1.2h-6.9c-2.1,0-3.2-0.3-4.1-1.3c-1.4-1.4-1.9-3-1.9-9.1
		c0-6.1,0.5-7.7,1.9-9.1c0.9-0.9,2-1.2,4.1-1.2h6.2c2.1,0,3.3,0.3,4.1,1.2c1.4,1.4,1.7,3.1,1.7,9.1v0.6c0,0.6-0.2,0.8-0.8,0.8H196.1
		z M196.1,57.7h7c0-2.8-0.2-3.7-0.5-4c-0.2-0.2-0.6-0.3-1.7-0.3h-2.5c-1.2,0-1.5,0.1-1.8,0.4C196.3,54,196.2,54.7,196.1,57.7z"/>
	<path fill="#757B82" d="M221.9,53.8c-0.3-0.2-0.6-0.3-1.5-0.3h-2.5c-0.8,0-1.2,0.1-1.4,0.3c-0.3,0.3-0.3,0.8-0.4,2h-5.3
		c0.1-3.5,0.4-4.7,1.2-5.5c0.8-0.8,1.8-1.2,3.7-1.2h7.1c2,0,3.2,0.4,3.9,1.1c0.9,0.9,1.2,2,1.2,5.4v9.7h2.7v4.5h-8.3v-2.3
		c-2.5,2-3.3,2.3-5.1,2.3h-2.5c-1.8,0-2.8-0.2-3.6-1.1c-0.7-0.7-1.2-2-1.2-4.7c0-2.6,0.4-4.2,1.3-5.1c1-1,2.4-1.4,5.8-1.4
		c1.8,0,3.7,0.2,5.3,0.6v-1.8C222.2,54.5,222.1,54.1,221.9,53.8z M222.2,64.7v-3.6h-3.4c-2.2,0-2.7,0.2-3.1,0.5
		c-0.4,0.4-0.5,0.9-0.5,1.9c0,1.1,0.1,1.7,0.4,2c0.3,0.3,0.7,0.3,1.5,0.3h1.2C219.5,65.8,220.4,65.6,222.2,64.7z"/>
	<path fill="#757B82" d="M249.8,68.3c-0.9,0.9-2.1,1.3-4.2,1.3h-1.9c-1.7,0-2.7-0.4-5-2.4v4.1h2.9v4.4h-11.3v-4.5h2.8V53.7h-2.8
		v-4.5h8.4v2.7c2.6-2.3,3.5-2.7,5.2-2.7h1.8c2.2,0,3.3,0.3,4.3,1.3c1.2,1.2,1.7,3,1.7,9C251.7,65.3,251.1,67.1,249.8,68.3z
		 M238.7,54.5v9.8c1.2,0.6,2.1,0.8,3.1,0.8h1.8c1.1,0,1.5-0.1,1.9-0.5c0.5-0.5,0.7-1.5,0.7-5.3c0-3.8-0.2-4.8-0.7-5.3
		c-0.3-0.3-0.8-0.5-1.9-0.5h-1.7C240.8,53.6,239.9,53.9,238.7,54.5z"/>
</g>
<g opacity="0.3">
	<path fill="#006DB6" d="M15.8,43.5c2.5,0,3.5,0.3,4.4,1.2c1.4,1.4,2.1,3.8,2.1,11.9c0,8-0.7,10.5-2.1,11.9
		c-0.8,0.8-1.5,1.1-3.1,1.2l1,3.3H13l-0.8-3.3H6.9c-2.5,0-3.5-0.3-4.4-1.2c-1.4-1.4-2.1-3.9-2.1-11.9c0-8.1,0.7-10.5,2.1-11.9
		c0.9-0.9,1.9-1.2,4.4-1.2H15.8z M7.1,64.7C7.4,65,7.7,65,8.9,65h1.5L9,60h4.6l1.2,5c0.4,0,0.6-0.1,0.8-0.3c0.3-0.3,0.5-1.3,0.5-8
		s-0.2-7.7-0.5-8c-0.2-0.2-0.6-0.3-1.7-0.3h-5c-1.2,0-1.5,0.1-1.7,0.3c-0.3,0.3-0.5,1.3-0.5,8S6.8,64.4,7.1,64.7z"/>
	<path fill="#006DB6" d="M38.5,67.1c-2.7,2.4-3.5,2.8-5.4,2.8h-1.9c-1.8,0-2.9-0.4-3.7-1.2c-0.9-0.9-1.2-2-1.2-5V53.7h-2.7v-4.5h8.3
		v13.9c0,0.9,0.2,1.4,0.5,1.7c0.3,0.3,0.7,0.5,1.7,0.5h1.1c1,0,1.9-0.3,3.3-0.9V53.6h-2.9v-4.5h8.5v16.2h2.8v4.5h-8.4V67.1z"/>
	<path fill="#006DB6" d="M59.9,53.8c-0.3-0.2-0.6-0.3-1.5-0.3h-2.5c-0.8,0-1.2,0.1-1.4,0.3c-0.3,0.3-0.3,0.8-0.4,2h-5.3
		c0.1-3.5,0.4-4.7,1.2-5.5c0.8-0.8,1.8-1.2,3.7-1.2h7.1c2,0,3.2,0.4,3.9,1.1c0.9,0.9,1.2,2,1.2,5.4v9.7h2.7v4.5h-8.3v-2.3
		c-2.5,2-3.3,2.3-5.1,2.3h-2.5c-1.8,0-2.8-0.2-3.6-1.1c-0.7-0.7-1.2-2-1.2-4.7c0-2.6,0.4-4.2,1.3-5.1c1-1,2.4-1.4,5.8-1.4
		c1.8,0,3.7,0.2,5.3,0.6v-1.8C60.3,54.5,60.2,54.1,59.9,53.8z M60.3,64.7v-3.6h-3.4c-2.2,0-2.7,0.2-3.1,0.5
		c-0.4,0.4-0.5,0.9-0.5,1.9c0,1.1,0.1,1.7,0.4,2c0.3,0.3,0.7,0.3,1.5,0.3h1.2C57.5,65.8,58.4,65.6,60.3,64.7z"/>
	<path fill="#006DB6" d="M78.2,51.9c2.7-2.4,3.5-2.8,5.4-2.8h1.9c1.8,0,2.9,0.4,3.7,1.2c0.9,0.8,1.2,1.9,1.2,5v10.1h2.7v4.5H82.6
		v-4.4h2.2v-9.5c0-0.9-0.2-1.4-0.5-1.7c-0.3-0.3-0.7-0.5-1.7-0.5h-1.1c-1,0-1.9,0.2-3.3,0.9v10.8h2.2v4.4H69.9v-4.5h2.8V53.7h-2.8
		v-4.5h8.4V51.9z"/>
	<path fill="#006DB6" d="M104.8,69l-2.1,0.5c-0.9,0.2-2.3,0.5-3.9,0.5c-2,0-2.9-0.4-3.6-1.1c-0.7-0.7-0.9-1.6-0.9-3.7V53.7h-2.8
		v-4.5h2.8V44h5.6v5.1h5v4.5h-5v10c0,0.9,0.1,1.2,0.3,1.4c0.2,0.2,0.5,0.2,1.5,0.2h3.2V69z"/>
	<path fill="#006DB6" d="M121.2,67.1c-2.7,2.4-3.5,2.8-5.4,2.8h-1.9c-1.8,0-2.9-0.4-3.7-1.2c-0.9-0.9-1.2-2-1.2-5V53.7h-2.7v-4.5
		h8.3v13.9c0,0.9,0.2,1.4,0.5,1.7c0.3,0.3,0.7,0.5,1.7,0.5h1.1c1,0,1.9-0.3,3.3-0.9V53.6h-2.9v-4.5h8.5v16.2h2.8v4.5h-8.4V67.1z"/>
	<path fill="#006DB6" d="M139.6,51.9c2.7-2.4,3.5-2.8,5.4-2.8h1.7c1.8,0,2.9,0.4,3.7,1.2c0.5,0.5,0.8,1,1,1.8c2.8-2.6,3.7-3,5.6-3
		h1.7c1.8,0,2.9,0.4,3.7,1.2c0.9,0.8,1.2,1.9,1.2,5v10.1h2.7v4.5h-10.4v-4.4h2.2v-9.5c0-0.9-0.2-1.4-0.5-1.7
		c-0.3-0.3-0.7-0.5-1.7-0.5h-1c-1,0-1.9,0.2-3.3,0.9v0.7v10.1h2.2v4.4h-10v-4.4h2.2v-9.5c0-0.9-0.2-1.4-0.5-1.7
		c-0.3-0.3-0.7-0.5-1.7-0.5h-1c-1,0-1.9,0.2-3.3,0.9v10.8h2.2v4.4h-10.6v-4.5h2.8V53.7h-2.8v-4.5h8.4V51.9z"/>
	<path fill="#006DB6" d="M170.8,48.2h-3.2v-4.7H180v4.7h-3.3v16.9h7.1v-4.8h5.3v9.5h-21.4v-4.7h3.2V48.2z"/>
	<path fill="#006DB6" d="M196.1,60.9c0,3.4,0.2,4,0.5,4.3c0.3,0.3,0.6,0.4,1.8,0.4h2.9c1.2,0,1.5-0.1,1.7-0.4
		c0.2-0.2,0.3-0.8,0.3-2.3h5.2c0,3.1-0.4,4.7-1.4,5.7c-0.6,0.6-1.5,1.2-3.7,1.2h-6.9c-2.1,0-3.2-0.3-4.1-1.3c-1.4-1.4-1.9-3-1.9-9.1
		c0-6.1,0.5-7.7,1.9-9.1c0.9-0.9,2-1.2,4.1-1.2h6.2c2.1,0,3.3,0.3,4.1,1.2c1.4,1.4,1.7,3.1,1.7,9.1v0.6c0,0.6-0.2,0.8-0.8,0.8H196.1
		z M196.1,57.7h7c0-2.8-0.2-3.7-0.5-4c-0.2-0.2-0.6-0.3-1.7-0.3h-2.5c-1.2,0-1.5,0.1-1.8,0.4C196.3,54,196.2,54.7,196.1,57.7z"/>
	<path fill="#006DB6" d="M221.9,53.8c-0.3-0.2-0.6-0.3-1.5-0.3h-2.5c-0.8,0-1.2,0.1-1.4,0.3c-0.3,0.3-0.3,0.8-0.4,2h-5.3
		c0.1-3.5,0.4-4.7,1.2-5.5c0.8-0.8,1.8-1.2,3.7-1.2h7.1c2,0,3.2,0.4,3.9,1.1c0.9,0.9,1.2,2,1.2,5.4v9.7h2.7v4.5h-8.3v-2.3
		c-2.5,2-3.3,2.3-5.1,2.3h-2.5c-1.8,0-2.8-0.2-3.6-1.1c-0.7-0.7-1.2-2-1.2-4.7c0-2.6,0.4-4.2,1.3-5.1c1-1,2.4-1.4,5.8-1.4
		c1.8,0,3.7,0.2,5.3,0.6v-1.8C222.2,54.5,222.1,54.1,221.9,53.8z M222.2,64.7v-3.6h-3.4c-2.2,0-2.7,0.2-3.1,0.5
		c-0.4,0.4-0.5,0.9-0.5,1.9c0,1.1,0.1,1.7,0.4,2c0.3,0.3,0.7,0.3,1.5,0.3h1.2C219.5,65.8,220.4,65.6,222.2,64.7z"/>
	<path fill="#006DB6" d="M249.8,68.3c-0.9,0.9-2.1,1.3-4.2,1.3h-1.9c-1.7,0-2.7-0.4-5-2.4v4.1h2.9v4.4h-11.3v-4.5h2.8V53.7h-2.8
		v-4.5h8.4v2.7c2.6-2.3,3.5-2.7,5.2-2.7h1.8c2.2,0,3.3,0.3,4.3,1.3c1.2,1.2,1.7,3,1.7,9C251.7,65.3,251.1,67.1,249.8,68.3z
		 M238.7,54.5v9.8c1.2,0.6,2.1,0.8,3.1,0.8h1.8c1.1,0,1.5-0.1,1.9-0.5c0.5-0.5,0.7-1.5,0.7-5.3c0-3.8-0.2-4.8-0.7-5.3
		c-0.3-0.3-0.8-0.5-1.9-0.5h-1.7C240.8,53.6,239.9,53.9,238.7,54.5z"/>
</g>
<polygon fill="#80A4D3" points="39.6,6.2 39.6,12.4 39.6,18.6 55.6,12.4 "/>
<polygon fill="#F1F1F1" points="23.6,12.4 23.6,18.6 23.6,24.8 39.6,18.6 "/>
<polygon fill="#006DB6" points="39.6,18.6 39.6,24.8 39.6,31 55.6,24.8 "/>
<polygon fill="#6EC829" points="55.6,24.8 55.6,31 55.6,37.2 71.6,31 "/>
<polygon fill="#E2F3CF" points="55.6,12.4 55.6,18.6 55.6,24.8 71.6,18.6 "/>
<polygon fill="#4F88C5" points="55.6,0 55.6,6.2 55.6,12.4 71.6,6.2 "/>
<polygon fill="#D6E0F0" points="71.6,18.6 71.6,24.8 71.6,31 55.6,24.8 "/>
<polygon fill="#EDF7E0" points="87.6,24.8 87.6,31 87.6,37.2 71.6,31 "/>
<polygon fill="#EDF7E0" points="71.6,31 71.6,37.2 71.6,43.5 55.6,37.2 "/>
<polygon fill="#F1F1F1" points="55.6,0 55.6,6.2 55.6,12.4 39.6,6.2 "/>
<polygon fill="#E3E3E4" points="39.6,18.6 39.6,24.8 39.6,31 23.6,24.8 "/>
<polygon fill="#E3E3E4" points="39.6,6.2 39.6,12.4 39.6,18.6 23.6,12.4 "/>
<polygon fill="#E3E3E4" points="39.6,31 39.6,37.2 39.6,43.5 23.6,37.2 "/>
<polygon fill="#6EC829" points="71.6,31 71.6,37.2 71.6,43.5 87.6,37.2 "/>
</svg>
